<?xml version="1.0" standalone="no"?>
<!DOCTYPE svg PUBLIC "-//W3C//DTD SVG 20010904//EN"
 "http://www.w3.org/TR/2001/REC-SVG-20010904/DTD/svg10.dtd">
<svg version="1.0" xmlns="http://www.w3.org/2000/svg"
 width="946.000000pt" height="350.000000pt" viewBox="0 0 946.000000 350.000000"
 preserveAspectRatio="xMidYMid meet">

<g transform="translate(0.000000,350.000000) scale(0.100000,-0.100000)"
fill="#000000" stroke="none">
<path d="M1565 3278 l-150 -9 -160 -77 c-88 -42 -180 -88 -205 -102 l-45 -25
72 -3 71 -3 44 -66 c23 -36 46 -71 50 -76 4 -6 25 10 51 39 85 94 199 130 317
100 35 -9 69 -21 76 -27 18 -14 21 -4 29 94 6 77 10 90 31 103 41 28 43 25 84
-126 5 -19 7 -54 4 -78 -7 -49 6 -72 42 -72 20 0 24 5 24 33 0 19 -8 42 -19
53 -18 20 -39 78 -62 171 -10 42 -10 55 0 67 16 19 -4 19 -254 4z"/>
<path d="M2222 2985 c-101 -47 -180 -114 -302 -255 -167 -193 -228 -243 -337
-275 -83 -25 -242 -44 -418 -50 -93 -4 -232 -13 -307 -21 -129 -12 -293 -46
-311 -63 -4 -4 79 -11 185 -14 511 -18 827 -108 1052 -301 132 -113 245 -323
287 -531 21 -107 17 -301 -9 -408 -130 -530 -620 -836 -1119 -700 -130 35
-137 26 -21 -30 122 -58 201 -78 329 -84 137 -7 221 6 339 49 189 70 340 192
481 385 256 352 309 852 138 1313 -95 257 -121 456 -83 631 18 83 83 227 138
308 54 80 48 88 -42 46z"/>
<path d="M1450 2950 c-102 -55 -143 -138 -119 -244 34 -154 222 -208 347 -100
70 60 87 151 44 244 -20 42 -39 61 -91 95 -50 31 -128 34 -181 5z"/>
<path d="M6247 2627 c-205 -74 -243 -96 -249 -145 -10 -78 29 -121 110 -122
28 0 52 -2 52 -5 0 -6 -87 -218 -127 -310 -37 -84 -48 -108 -110 -245 -22 -47
-68 -149 -103 -227 -35 -77 -70 -149 -76 -158 -16 -21 -61 -23 -79 -4 -8 8
-43 84 -80 169 -36 85 -86 200 -110 255 -24 55 -62 145 -85 200 -23 55 -57
134 -76 176 -19 42 -34 82 -34 88 0 15 -1046 15 -1140 1 -36 -6 -93 -24 -126
-40 -195 -95 -253 -352 -120 -525 40 -52 61 -70 116 -96 86 -42 147 -48 472
-49 l306 0 26 -31 c33 -38 33 -79 2 -116 l-24 -28 -316 -3 c-174 -2 -316 -6
-316 -11 0 -4 5 -33 11 -65 14 -75 -2 -143 -42 -185 -16 -17 -29 -33 -29 -36
0 -3 172 -5 383 -5 310 0 391 3 431 15 89 27 161 80 202 151 129 220 9 488
-240 533 -35 6 -187 11 -359 11 -335 0 -351 3 -363 66 -7 36 16 88 41 98 9 3
203 6 431 6 l414 0 29 -57 c15 -32 70 -150 121 -263 188 -418 195 -433 248
-486 137 -136 392 -136 527 0 39 40 62 77 104 171 30 66 69 153 87 193 19 41
34 75 34 77 0 2 13 32 29 67 16 35 70 158 121 273 97 221 114 251 126 221 8
-22 55 -46 89 -46 55 0 105 49 105 103 0 12 -11 54 -26 92 -14 39 -45 129 -70
200 -49 139 -65 165 -98 164 -12 0 -110 -33 -219 -72z"/>
<path d="M2474 2297 c-2 -7 -3 -76 -2 -152 l3 -140 360 -5 c420 -6 419 -5 288
-86 -43 -27 -80 -51 -83 -54 -3 -3 -21 -14 -40 -24 -64 -35 -90 -70 -90 -121
0 -35 6 -52 25 -70 23 -24 28 -25 177 -25 167 0 219 -9 243 -43 18 -26 19 -83
2 -117 -22 -44 -69 -49 -462 -49 -198 0 -375 0 -393 0 l-33 -1 3 -147 3 -148
459 -3 c494 -2 523 0 624 51 61 30 133 112 157 178 25 68 26 193 2 264 -34
102 -128 171 -269 200 -52 10 -32 37 92 125 134 95 163 133 164 211 1 73 -37
128 -108 156 -47 18 -1115 18 -1122 0z"/>
<path d="M6517 1973 c-3 -5 -13 -55 -22 -113 -9 -58 -20 -127 -25 -155 -5 -27
-5 -54 -1 -58 11 -12 146 -4 144 8 -2 6 -24 11 -49 13 l-46 3 4 60 c5 65 16
80 58 78 44 -2 55 0 45 10 -6 5 -26 11 -45 13 l-35 3 3 55 c2 30 9 58 15 62 7
4 31 8 55 8 23 0 42 5 42 10 0 12 -136 14 -143 3z"/>
<path d="M6717 1951 c-21 -103 -48 -294 -42 -299 4 -4 31 -7 62 -7 49 0 58 3
83 32 58 65 80 224 39 277 -18 23 -28 26 -78 26 -56 0 -59 -1 -64 -29z m112
-35 c12 -45 -11 -181 -37 -215 -10 -15 -31 -27 -46 -29 -26 -3 -27 -1 -23 25
3 15 13 79 23 141 17 112 17 112 45 112 23 0 30 -6 38 -34z"/>
<path d="M6954 1968 c-8 -12 -27 -121 -40 -225 -6 -47 -4 -54 20 -78 24 -24
33 -27 69 -22 71 10 89 47 117 244 5 39 10 77 10 82 0 12 -36 15 -43 4 -3 -5
-12 -62 -22 -128 -19 -131 -37 -175 -71 -175 -40 0 -41 41 -8 224 8 43 14 80
14 82 0 10 -40 3 -46 -8z"/>
<path d="M7200 1973 c0 -5 -14 -73 -30 -153 -34 -167 -35 -180 -15 -180 21 0
32 25 48 114 16 84 37 123 37 70 0 -17 5 -56 11 -88 10 -49 15 -57 32 -54 15
2 30 25 56 85 20 46 40 83 44 83 5 0 6 -39 2 -86 -4 -47 -8 -93 -9 -102 -1
-11 7 -17 19 -17 17 0 21 9 27 55 3 30 11 96 17 145 16 131 15 135 -14 135
-26 0 -36 -17 -112 -190 -20 -46 -28 -30 -42 83 -6 48 -13 92 -16 97 -7 12
-55 13 -55 3z"/>
<path d="M7526 1972 c-7 -11 -37 -202 -43 -274 l-5 -58 77 0 c57 0 76 3 73 13
-3 7 -25 13 -53 15 l-48 3 7 46 c3 25 6 54 6 64 0 15 8 19 34 19 72 0 92 27
24 32 -42 3 -43 3 -40 38 6 75 9 80 51 80 44 0 71 8 71 21 0 11 -147 12 -154
1z"/>
<path d="M7735 1970 c-6 -9 -36 -179 -50 -282 -6 -44 -5 -48 15 -48 26 0 30
10 45 123 13 106 20 101 52 -38 15 -65 21 -80 37 -80 26 0 32 15 50 135 31
210 31 200 7 200 -13 0 -22 -8 -25 -22 -18 -87 -26 -133 -27 -161 l0 -32 -14
30 c-8 17 -21 65 -30 108 -13 63 -20 77 -35 77 -10 0 -22 -4 -25 -10z"/>
<path d="M7963 1968 c2 -7 10 -13 18 -13 20 -1 40 -15 34 -25 -3 -4 -12 -61
-20 -126 -9 -66 -18 -127 -21 -137 -6 -19 22 -35 37 -20 5 5 18 72 30 148 23
146 32 165 76 165 13 0 23 5 23 10 0 6 -37 10 -91 10 -68 0 -90 -3 -86 -12z"/>
<path d="M8201 1964 c-36 -25 -62 -99 -68 -191 -6 -78 -5 -82 21 -108 23 -23
33 -26 64 -22 71 12 106 85 107 219 0 76 -3 89 -20 102 -26 20 -75 20 -104 0z
m80 -41 c14 -36 -4 -164 -30 -213 -25 -48 -61 -49 -75 -3 -11 39 15 183 39
220 21 32 53 30 66 -4z"/>
<path d="M8410 1955 c-11 -28 -43 -235 -44 -280 -1 -23 3 -30 18 -30 16 0 22
11 30 55 7 37 16 55 26 55 9 0 20 -21 30 -55 12 -43 21 -56 38 -58 26 -4 27 8
10 72 -11 41 -10 46 14 74 27 33 44 107 32 145 -11 34 -34 46 -92 47 -47 0
-54 -3 -62 -25z m105 -26 c9 -27 -2 -88 -21 -116 -9 -14 -24 -23 -40 -23 -26
0 -26 1 -20 48 16 112 16 112 46 112 20 0 31 -6 35 -21z"/>
<path d="M8657 1969 c-23 -13 -47 -62 -47 -94 0 -37 15 -60 55 -85 42 -26 53
-61 31 -95 -14 -21 -24 -25 -67 -25 -36 0 -49 -4 -46 -12 2 -9 24 -13 60 -13
70 1 105 29 114 93 6 43 -5 59 -75 114 -45 36 -19 95 43 100 21 2 40 9 43 16
5 15 -84 16 -111 1z"/>
<path d="M9007 1969 c-58 -34 -60 -136 -6 -232 12 -22 -12 -67 -36 -67 -17 0
-18 6 -15 78 1 41 -1 52 -14 52 -24 0 -37 -36 -34 -93 3 -46 6 -53 31 -61 19
-7 38 -6 64 3 27 10 38 11 41 2 5 -14 52 -15 52 -1 0 6 -7 25 -16 42 -15 29
-15 33 10 78 14 26 23 50 19 54 -13 13 -42 5 -48 -14 -15 -47 -45 -5 -45 62 0
57 16 76 64 80 22 2 41 9 44 16 5 15 -84 16 -111 1z"/>
<path d="M6276 1439 c-44 -35 -67 -110 -68 -225 -1 -48 3 -61 22 -76 22 -18
73 -24 104 -12 25 10 8 24 -28 24 -28 0 -36 5 -46 30 -21 50 1 185 38 230 11
13 33 23 60 27 29 4 39 9 30 14 -25 16 -85 10 -112 -12z"/>
<path d="M6480 1447 c-41 -20 -74 -100 -79 -191 -4 -94 8 -123 54 -132 84 -15
145 80 145 227 0 61 -2 70 -26 88 -30 24 -58 26 -94 8z m68 -87 c4 -70 -21
-181 -44 -200 -21 -19 -47 -7 -55 24 -10 36 5 163 23 196 24 46 30 51 51 48
20 -3 22 -10 25 -68z"/>
<path d="M6683 1453 c-7 -2 -13 -17 -13 -31 0 -15 -6 -61 -14 -102 -8 -41 -17
-103 -21 -137 -6 -59 -6 -63 13 -63 22 0 25 8 43 128 7 45 16 79 20 75 4 -5
16 -48 26 -97 18 -90 40 -123 63 -100 10 10 45 206 52 289 3 34 0 40 -17 40
-17 0 -22 -12 -35 -93 -9 -51 -20 -92 -25 -90 -6 1 -18 40 -27 86 -22 106 -26
111 -65 95z"/>
<path d="M6930 1433 c-56 -52 -48 -118 21 -165 30 -22 39 -34 39 -57 0 -40
-24 -61 -68 -61 -45 0 -72 -14 -47 -24 51 -19 129 4 150 45 31 60 10 126 -45
144 -9 3 -23 16 -30 30 -20 37 2 83 45 91 19 3 38 3 44 0 5 -4 12 -2 15 3 8
12 -18 21 -60 21 -23 0 -43 -9 -64 -27z"/>
<path d="M7106 1348 c-23 -147 -20 -197 16 -217 35 -20 94 -5 120 29 17 24 58
213 58 272 0 21 -5 28 -19 28 -22 0 -26 -11 -36 -85 -11 -86 -36 -199 -47
-212 -14 -17 -43 -16 -57 1 -10 12 -9 40 5 128 23 153 23 162 -1 166 -19 3
-22 -7 -39 -110z"/>
<path d="M7373 1453 c-7 -2 -13 -17 -13 -31 0 -15 -9 -78 -20 -141 -30 -173
-34 -162 53 -159 77 3 96 21 26 25 -23 2 -44 4 -46 6 -1 2 4 48 12 103 33 209
33 216 -12 197z"/>
<path d="M7510 1450 c0 -5 8 -10 18 -10 32 0 40 -18 31 -68 -5 -26 -15 -91
-22 -145 -12 -84 -11 -100 0 -104 8 -3 18 -2 23 3 8 9 31 131 45 241 6 48 18
70 38 72 4 1 16 1 28 1 11 0 17 5 14 10 -3 6 -44 10 -91 10 -49 0 -84 -4 -84
-10z"/>
<path d="M7766 1453 c-14 -14 -126 -302 -126 -324 0 -6 10 -9 22 -7 15 2 26
16 37 46 14 39 18 42 52 42 36 0 37 -1 44 -46 5 -38 10 -45 27 -42 20 3 21 9
18 93 -1 50 -5 124 -9 165 -6 71 -7 75 -31 78 -14 2 -29 -1 -34 -5z m24 -157
c0 -49 -2 -54 -25 -58 -13 -3 -27 -3 -29 -1 -4 5 21 100 31 116 12 19 23 -9
23 -57z"/>
<path d="M7945 1448 c-6 -18 -34 -200 -42 -270 -5 -50 -3 -58 11 -58 21 0 32
28 41 110 4 36 11 74 15 85 10 25 11 21 36 -100 18 -84 21 -90 43 -90 23 0 26
6 38 75 7 41 18 111 24 154 5 43 11 84 12 90 1 6 -7 12 -19 14 -19 3 -22 -6
-38 -100 -17 -105 -22 -121 -30 -97 -12 39 -36 150 -36 167 0 29 -46 44 -55
20z"/>
<path d="M8166 1453 c-3 -4 8 -12 26 -18 19 -6 32 -17 30 -24 -2 -7 -9 -62
-17 -122 -8 -59 -17 -119 -21 -133 -4 -19 -2 -28 11 -32 26 -10 33 4 50 116
31 198 26 183 68 195 21 6 35 14 31 18 -9 9 -168 9 -178 0z"/>
<path d="M8414 1450 c-33 -13 -54 -50 -54 -93 0 -38 4 -44 81 -113 19 -17 14
-63 -9 -81 -9 -7 -32 -13 -51 -13 -20 0 -43 -4 -50 -9 -22 -14 29 -25 81 -18
49 7 84 38 92 82 9 46 -8 82 -49 106 -39 23 -53 58 -37 94 8 18 22 24 63 30
35 5 47 10 38 16 -18 11 -77 10 -105 -1z"/>
<path d="M3876 913 c-3 -3 -6 -78 -6 -165 0 -134 2 -158 15 -158 12 0 15 17
15 89 0 96 9 115 52 109 22 -3 23 -8 28 -97 4 -67 9 -96 18 -99 11 -3 13 16
10 102 -3 120 -9 130 -70 122 l-38 -4 0 48 c0 46 -9 67 -24 53z"/>
<path d="M2460 760 c0 -82 0 -153 -1 -157 0 -5 7 -9 15 -11 13 -3 16 8 16 62
0 66 0 66 28 66 40 0 52 -17 52 -77 0 -42 3 -53 16 -53 13 0 15 10 10 63 -7
76 -7 78 0 154 7 80 -12 103 -86 103 l-50 0 0 -150z m94 114 c16 -15 22 -78
10 -108 -4 -10 -18 -16 -40 -16 l-34 0 0 70 c0 67 1 70 24 70 14 0 32 -7 40
-16z"/>
<path d="M4300 750 c0 -136 2 -160 15 -160 13 0 15 24 15 160 0 136 -2 160
-15 160 -13 0 -15 -24 -15 -160z"/>
<path d="M6400 750 c0 -136 2 -160 15 -160 13 0 15 24 15 160 0 136 -2 160
-15 160 -13 0 -15 -24 -15 -160z"/>
<path d="M7170 752 l0 -158 54 -2 c77 -2 91 17 90 114 -1 93 -19 119 -76 111
l-38 -5 0 49 c0 37 -4 49 -15 49 -13 0 -15 -24 -15 -158z m105 -41 c0 -59 -3
-76 -17 -85 -34 -21 -53 4 -56 74 -4 83 0 92 40 88 l33 -3 0 -74z"/>
<path d="M5655 890 c-7 -12 2 -30 16 -30 5 0 9 9 9 20 0 21 -15 27 -25 10z"/>
<path d="M7770 880 c0 -11 4 -20 9 -20 11 0 22 26 14 34 -12 12 -23 5 -23 -14z"/>
<path d="M4170 715 c0 -110 4 -175 10 -175 6 0 10 65 10 175 0 110 -4 175 -10
175 -6 0 -10 -65 -10 -175z"/>
<path d="M6240 714 c0 -136 3 -175 13 -172 8 3 13 44 15 144 3 144 -2 204 -18
204 -6 0 -10 -71 -10 -176z"/>
<path d="M5507 863 c-4 -3 -7 -15 -7 -25 0 -12 -7 -18 -21 -18 -18 0 -19 -2
-9 -15 7 -8 16 -13 20 -10 4 3 10 -34 11 -81 4 -76 7 -88 28 -105 25 -20 61
-26 61 -9 0 6 -11 15 -24 19 -30 12 -36 29 -36 107 0 44 4 64 13 66 6 0 18 2
26 2 27 2 22 25 -6 28 -20 2 -29 9 -31 26 -3 22 -13 28 -25 15z"/>
<path d="M7620 849 c0 -12 -8 -23 -20 -26 -11 -3 -20 -9 -20 -13 0 -4 9 -10
20 -13 18 -5 20 -14 20 -86 0 -68 3 -84 20 -101 22 -22 60 -27 60 -7 0 7 -10
17 -22 22 -21 9 -23 17 -23 90 0 72 2 80 19 80 11 0 21 6 23 13 3 7 -4 12 -16
12 -14 0 -25 9 -31 25 -12 30 -30 33 -30 4z"/>
<path d="M2705 806 c-16 -12 -20 -29 -23 -93 -3 -68 -1 -81 18 -100 36 -39
120 -20 120 28 0 25 -11 24 -33 -2 -34 -39 -86 -8 -73 44 6 25 11 27 56 27
l50 0 0 39 c0 30 -6 44 -22 55 -28 20 -68 20 -93 2z m88 -45 c5 -21 -10 -31
-48 -31 -28 0 -38 13 -30 39 11 37 67 31 78 -8z"/>
<path d="M2914 812 c-6 -4 -16 -17 -23 -29 -20 -38 12 -81 68 -93 33 -7 49
-34 32 -54 -19 -22 -58 -20 -71 4 -14 27 -40 27 -33 0 7 -27 41 -50 74 -50 28
0 69 39 69 65 0 23 -41 65 -65 65 -49 0 -62 62 -13 68 18 2 31 -4 41 -19 9
-11 20 -18 26 -14 16 9 14 18 -9 43 -21 22 -73 30 -96 14z"/>
<path d="M3120 798 c-16 -18 -20 -35 -20 -93 0 -58 4 -75 20 -93 36 -38 120
-18 120 29 0 24 -11 24 -33 -1 -33 -39 -81 -16 -75 37 3 26 6 28 56 31 l52 3
0 39 c0 29 -6 43 -22 54 -32 23 -74 20 -98 -6z m90 -28 c13 -24 -10 -42 -47
-38 -37 4 -44 40 -11 55 27 12 45 7 58 -17z"/>
<path d="M3332 804 c-12 -8 -22 -24 -22 -35 0 -25 16 -24 30 1 16 30 68 27 76
-4 8 -32 0 -43 -36 -51 -39 -9 -80 -42 -80 -66 0 -38 35 -59 95 -57 l55 2 0
93 c0 80 -3 96 -20 113 -24 24 -67 26 -98 4z m88 -138 c0 -28 -18 -46 -46 -46
-52 0 -53 54 0 69 38 10 46 6 46 -23z"/>
<path d="M3520 704 c0 -95 3 -114 15 -114 12 0 15 15 15 79 0 93 5 110 36 122
38 14 28 27 -21 27 l-45 0 0 -114z"/>
<path d="M3690 800 c-30 -30 -29 -161 1 -191 30 -30 88 -23 108 13 20 35 7 48
-19 20 -12 -12 -29 -22 -39 -22 -32 0 -42 24 -39 97 l3 68 32 3 c24 2 34 -2
43 -17 14 -26 30 -27 30 -2 0 46 -84 67 -120 31z"/>
<path d="M4410 703 c0 -94 3 -113 15 -113 12 0 15 17 15 89 0 96 9 115 52 109
22 -3 23 -7 26 -100 2 -78 6 -98 17 -98 12 0 15 18 15 93 0 121 -10 137 -85
135 l-55 -2 0 -113z"/>
<path d="M4634 805 c-11 -27 1 -208 14 -213 9 -3 12 17 12 78 0 91 10 120 43
120 39 0 47 -18 47 -113 0 -66 3 -88 13 -85 14 5 22 113 12 165 -9 49 -29 63
-86 61 -29 0 -53 -6 -55 -13z"/>
<path d="M4874 799 c-15 -17 -19 -36 -19 -94 0 -58 4 -77 19 -94 24 -26 77
-28 98 -3 33 37 34 165 1 197 -22 22 -76 19 -99 -6z m86 -30 c14 -26 12 -112
-3 -133 -8 -11 -23 -17 -38 -14 -23 3 -24 7 -27 78 -2 60 0 77 13 87 20 14 42
7 55 -18z"/>
<path d="M5050 811 c0 -7 33 -126 56 -203 3 -10 14 -18 24 -18 14 0 22 11 30
43 6 23 20 73 30 111 11 39 18 72 15 74 -15 16 -34 -17 -50 -87 -20 -88 -37
-95 -50 -23 -12 69 -28 112 -42 112 -7 0 -13 -4 -13 -9z"/>
<path d="M5298 808 c-20 -16 -27 -49 -11 -55 6 -2 14 5 18 17 5 17 13 20 38
18 28 -3 32 -7 32 -33 0 -24 -6 -32 -30 -40 -58 -20 -75 -34 -75 -65 0 -44 22
-60 85 -58 l55 2 0 97 c0 90 -2 99 -22 113 -27 19 -68 21 -90 4z m85 -134 c6
-31 -15 -54 -49 -54 -28 0 -42 25 -27 49 8 13 35 25 64 30 4 1 9 -11 12 -25z"/>
<path d="M5650 705 c0 -96 3 -115 15 -115 12 0 15 19 15 115 0 96 -3 115 -15
115 -12 0 -15 -19 -15 -115z"/>
<path d="M5774 799 c-15 -17 -19 -36 -19 -94 0 -58 4 -77 19 -94 24 -26 77
-28 99 -3 24 26 24 173 1 196 -23 23 -77 20 -100 -5z m86 -28 c14 -28 13 -114
-3 -135 -8 -11 -23 -17 -38 -14 -22 3 -24 7 -27 72 -2 38 -1 75 2 83 8 20 54
16 66 -6z"/>
<path d="M5980 704 c0 -95 3 -114 15 -114 12 0 15 16 15 81 0 90 10 119 43
119 39 0 47 -18 47 -113 0 -66 3 -88 13 -85 14 5 22 113 12 165 -9 49 -28 62
-90 62 l-55 -1 0 -114z"/>
<path d="M6520 703 c0 -94 3 -113 15 -113 12 0 15 16 15 81 0 92 10 119 45
119 35 0 45 -27 45 -120 0 -61 3 -81 13 -78 14 5 20 90 12 155 -9 60 -25 73
-90 71 l-55 -2 0 -113z"/>
<path d="M6750 800 c-16 -16 -20 -33 -20 -95 0 -86 18 -115 70 -115 32 0 70
30 70 55 0 22 -23 18 -38 -5 -7 -11 -21 -20 -31 -20 -32 0 -42 24 -39 97 l3
68 33 3 c27 3 35 -1 39 -18 3 -11 10 -19 16 -17 37 12 -6 67 -53 67 -17 0 -39
-9 -50 -20z"/>
<path d="M6940 725 c0 -118 11 -135 89 -133 l51 1 0 114 c0 94 -3 113 -15 113
-12 0 -15 -16 -15 -84 0 -100 -5 -116 -34 -116 -38 0 -46 19 -46 112 0 72 -3
88 -15 88 -12 0 -15 -17 -15 -95z"/>
<path d="M7407 802 c-19 -20 -23 -52 -7 -52 5 0 14 9 20 20 13 23 52 27 70 5
20 -25 3 -49 -50 -68 -58 -21 -73 -51 -46 -92 15 -23 22 -25 74 -23 l57 3 2
85 c1 81 -7 116 -31 132 -21 14 -73 8 -89 -10z m93 -136 c0 -30 -18 -46 -51
-46 -19 0 -30 6 -34 20 -9 27 0 38 38 48 39 11 47 7 47 -22z"/>
<path d="M7770 705 c0 -65 4 -115 9 -115 13 0 17 39 13 143 -5 128 -22 107
-22 -28z"/>
<path d="M7914 812 c-39 -26 -48 -152 -13 -196 25 -31 77 -36 102 -8 25 27 26
166 2 192 -18 20 -69 27 -91 12z m76 -48 c13 -33 13 -100 0 -125 -6 -11 -21
-19 -35 -19 -14 0 -29 8 -35 19 -14 27 -13 124 2 139 21 21 58 14 68 -14z"/>
<path d="M8100 704 c0 -93 3 -114 15 -114 11 0 15 20 17 98 3 93 4 97 26 100
43 6 52 -13 52 -109 0 -72 3 -89 15 -89 12 0 15 17 15 93 0 121 -10 137 -86
136 l-54 -2 0 -113z"/>
</g>
</svg>
